<mxfile host="app.diagrams.net" modified="2024-01-14T11:40:49.681Z" agent="Mozilla/5.0 (Windows NT 10.0; Win64; x64) AppleWebKit/537.36 (KHTML, like Gecko) Chrome/119.0.0.0 Safari/537.36 OPR/105.0.0.0" etag="ySKlMxL8pHzIymE3D5bt" version="22.1.18" type="device">
  <diagram name="Page-1" id="90a13364-a465-7bf4-72fc-28e22215d7a0">
    <mxGraphModel dx="2259" dy="842" grid="0" gridSize="10" guides="1" tooltips="1" connect="1" arrows="0" fold="1" page="1" pageScale="1.5" pageWidth="1169" pageHeight="826" background="#030303" math="0" shadow="0">
      <root>
        <mxCell id="0" style=";html=1;" />
        <mxCell id="1" style=";html=1;" parent="0" />
        <mxCell id="b5TnzWUv-BzJ7pMN1WHI-7" value="" style="group" parent="1" vertex="1" connectable="0">
          <mxGeometry x="460" y="130" width="623" height="130" as="geometry" />
        </mxCell>
        <mxCell id="b5TnzWUv-BzJ7pMN1WHI-2" value="" style="rounded=0;whiteSpace=wrap;html=1;fillColor=#203C4F;strokeColor=#FFFFFF;gradientColor=none;gradientDirection=north;labelPosition=center;verticalLabelPosition=middle;align=center;verticalAlign=middle;" parent="b5TnzWUv-BzJ7pMN1WHI-7" vertex="1">
          <mxGeometry width="623" height="130" as="geometry" />
        </mxCell>
        <mxCell id="b5TnzWUv-BzJ7pMN1WHI-6" value="index.html&lt;br&gt;" style="text;html=1;strokeColor=none;fillColor=none;align=center;verticalAlign=middle;whiteSpace=wrap;rounded=0;fontColor=#FFFFFF;" parent="b5TnzWUv-BzJ7pMN1WHI-7" vertex="1">
          <mxGeometry x="267.00000000000006" width="89.00000000000001" height="39" as="geometry" />
        </mxCell>
        <mxCell id="b5TnzWUv-BzJ7pMN1WHI-47" value="" style="group" parent="b5TnzWUv-BzJ7pMN1WHI-7" vertex="1" connectable="0">
          <mxGeometry x="225" y="59.00272727272727" width="60" height="53.630909090909086" as="geometry" />
        </mxCell>
        <mxCell id="b5TnzWUv-BzJ7pMN1WHI-44" value="" style="rounded=1;whiteSpace=wrap;html=1;fillColor=#030303;strokeColor=#FFFFFF;" parent="b5TnzWUv-BzJ7pMN1WHI-47" vertex="1">
          <mxGeometry x="15" y="29.99454545454546" width="30" height="23.636363636363633" as="geometry" />
        </mxCell>
        <mxCell id="b5TnzWUv-BzJ7pMN1WHI-45" value="&lt;font color=&quot;#ffffff&quot;&gt;Cart&lt;/font&gt;" style="text;html=1;strokeColor=none;fillColor=none;align=center;verticalAlign=middle;whiteSpace=wrap;rounded=0;" parent="b5TnzWUv-BzJ7pMN1WHI-47" vertex="1">
          <mxGeometry width="60" height="35.45454545454545" as="geometry" />
        </mxCell>
        <mxCell id="b5TnzWUv-BzJ7pMN1WHI-48" value="" style="group" parent="b5TnzWUv-BzJ7pMN1WHI-7" vertex="1" connectable="0">
          <mxGeometry x="302" y="59.00272727272727" width="60" height="53.630909090909086" as="geometry" />
        </mxCell>
        <mxCell id="b5TnzWUv-BzJ7pMN1WHI-49" value="" style="rounded=1;whiteSpace=wrap;html=1;fillColor=#030303;strokeColor=#FFFFFF;" parent="b5TnzWUv-BzJ7pMN1WHI-48" vertex="1">
          <mxGeometry x="15" y="29.99454545454546" width="30" height="23.636363636363633" as="geometry" />
        </mxCell>
        <mxCell id="b5TnzWUv-BzJ7pMN1WHI-50" value="&lt;font color=&quot;#ffffff&quot;&gt;Catalog&lt;br&gt;&lt;/font&gt;" style="text;html=1;strokeColor=none;fillColor=none;align=center;verticalAlign=middle;whiteSpace=wrap;rounded=0;" parent="b5TnzWUv-BzJ7pMN1WHI-48" vertex="1">
          <mxGeometry width="60" height="35.45454545454545" as="geometry" />
        </mxCell>
        <mxCell id="b5TnzWUv-BzJ7pMN1WHI-54" value="" style="group" parent="b5TnzWUv-BzJ7pMN1WHI-7" vertex="1" connectable="0">
          <mxGeometry x="356" y="60.00272727272727" width="60" height="53.630909090909086" as="geometry" />
        </mxCell>
        <mxCell id="b5TnzWUv-BzJ7pMN1WHI-55" value="" style="rounded=1;whiteSpace=wrap;html=1;fillColor=#030303;strokeColor=#FFFFFF;" parent="b5TnzWUv-BzJ7pMN1WHI-54" vertex="1">
          <mxGeometry x="15" y="29.99454545454546" width="30" height="23.636363636363633" as="geometry" />
        </mxCell>
        <mxCell id="b5TnzWUv-BzJ7pMN1WHI-56" value="&lt;font color=&quot;#ffffff&quot;&gt;Order&lt;/font&gt;" style="text;html=1;strokeColor=none;fillColor=none;align=center;verticalAlign=middle;whiteSpace=wrap;rounded=0;" parent="b5TnzWUv-BzJ7pMN1WHI-54" vertex="1">
          <mxGeometry width="60" height="35.45454545454545" as="geometry" />
        </mxCell>
        <mxCell id="APez3hjichmPzEGnVa3R-18" value="" style="rounded=1;whiteSpace=wrap;html=1;fillColor=#030303;strokeColor=#FFFFFF;" vertex="1" parent="b5TnzWUv-BzJ7pMN1WHI-7">
          <mxGeometry x="501" y="89.99727272727273" width="30" height="23.636363636363633" as="geometry" />
        </mxCell>
        <mxCell id="APez3hjichmPzEGnVa3R-19" value="&lt;font color=&quot;#ffffff&quot;&gt;Support&lt;br&gt;&lt;/font&gt;" style="text;html=1;strokeColor=none;fillColor=none;align=center;verticalAlign=middle;whiteSpace=wrap;rounded=0;" vertex="1" parent="b5TnzWUv-BzJ7pMN1WHI-7">
          <mxGeometry x="486" y="60.00272727272727" width="60" height="34" as="geometry" />
        </mxCell>
        <mxCell id="b5TnzWUv-BzJ7pMN1WHI-52" value="" style="rounded=1;whiteSpace=wrap;html=1;fillColor=#030303;strokeColor=#FFFFFF;" parent="b5TnzWUv-BzJ7pMN1WHI-7" vertex="1">
          <mxGeometry x="172" y="88.99727272727273" width="30" height="23.636363636363633" as="geometry" />
        </mxCell>
        <mxCell id="b5TnzWUv-BzJ7pMN1WHI-53" value="&lt;font color=&quot;#ffffff&quot;&gt;Calendar&lt;br&gt;&lt;/font&gt;" style="text;html=1;strokeColor=none;fillColor=none;align=center;verticalAlign=middle;whiteSpace=wrap;rounded=0;" parent="b5TnzWUv-BzJ7pMN1WHI-7" vertex="1">
          <mxGeometry x="157" y="59.00272727272727" width="60" height="35.45454545454545" as="geometry" />
        </mxCell>
        <mxCell id="APez3hjichmPzEGnVa3R-26" value="" style="group" vertex="1" connectable="0" parent="b5TnzWUv-BzJ7pMN1WHI-7">
          <mxGeometry x="93" y="59.00272727272727" width="60" height="53.630909090909086" as="geometry" />
        </mxCell>
        <mxCell id="APez3hjichmPzEGnVa3R-27" value="" style="rounded=1;whiteSpace=wrap;html=1;fillColor=#030303;strokeColor=#FFFFFF;" vertex="1" parent="APez3hjichmPzEGnVa3R-26">
          <mxGeometry x="15" y="29.99454545454546" width="30" height="23.636363636363633" as="geometry" />
        </mxCell>
        <mxCell id="APez3hjichmPzEGnVa3R-28" value="&lt;font color=&quot;#ffffff&quot;&gt;Reservations&lt;br&gt;&lt;/font&gt;" style="text;html=1;strokeColor=none;fillColor=none;align=center;verticalAlign=middle;whiteSpace=wrap;rounded=0;" vertex="1" parent="APez3hjichmPzEGnVa3R-26">
          <mxGeometry width="60" height="35.45454545454545" as="geometry" />
        </mxCell>
        <mxCell id="APez3hjichmPzEGnVa3R-23" value="" style="group" vertex="1" connectable="0" parent="b5TnzWUv-BzJ7pMN1WHI-7">
          <mxGeometry x="18" y="59.00272727272727" width="60" height="53.630909090909086" as="geometry" />
        </mxCell>
        <mxCell id="APez3hjichmPzEGnVa3R-55" style="edgeStyle=orthogonalEdgeStyle;shape=connector;rounded=0;orthogonalLoop=1;jettySize=auto;html=1;exitX=0;exitY=0.5;exitDx=0;exitDy=0;labelBackgroundColor=default;strokeColor=#FFFFFF;align=center;verticalAlign=middle;fontFamily=Helvetica;fontSize=11;fontColor=default;endArrow=classic;" edge="1" parent="APez3hjichmPzEGnVa3R-23" source="APez3hjichmPzEGnVa3R-24">
          <mxGeometry relative="1" as="geometry">
            <mxPoint x="-115.77777777777783" y="41.99727272727273" as="targetPoint" />
          </mxGeometry>
        </mxCell>
        <mxCell id="APez3hjichmPzEGnVa3R-24" value="" style="rounded=1;whiteSpace=wrap;html=1;fillColor=#030303;strokeColor=#FFFFFF;" vertex="1" parent="APez3hjichmPzEGnVa3R-23">
          <mxGeometry x="15" y="29.99454545454546" width="30" height="23.636363636363633" as="geometry" />
        </mxCell>
        <mxCell id="APez3hjichmPzEGnVa3R-25" value="&lt;font color=&quot;#ffffff&quot;&gt;Account&lt;br&gt;&lt;/font&gt;" style="text;html=1;strokeColor=none;fillColor=none;align=center;verticalAlign=middle;whiteSpace=wrap;rounded=0;" vertex="1" parent="APez3hjichmPzEGnVa3R-23">
          <mxGeometry width="60" height="35.45454545454545" as="geometry" />
        </mxCell>
        <mxCell id="b5TnzWUv-BzJ7pMN1WHI-8" value="" style="group" parent="1" vertex="1" connectable="0">
          <mxGeometry x="1230" y="150" width="193" height="110" as="geometry" />
        </mxCell>
        <mxCell id="b5TnzWUv-BzJ7pMN1WHI-9" value="" style="rounded=0;whiteSpace=wrap;html=1;fillColor=#203C4F;strokeColor=#FFFFFF;gradientColor=none;gradientDirection=north;labelPosition=center;verticalLabelPosition=middle;align=center;verticalAlign=middle;" parent="b5TnzWUv-BzJ7pMN1WHI-8" vertex="1">
          <mxGeometry width="193.00000000000003" height="110.00000000000001" as="geometry" />
        </mxCell>
        <mxCell id="b5TnzWUv-BzJ7pMN1WHI-10" value="login.html" style="text;html=1;strokeColor=none;fillColor=none;align=center;verticalAlign=middle;whiteSpace=wrap;rounded=0;fontColor=#FFFFFF;" parent="b5TnzWUv-BzJ7pMN1WHI-8" vertex="1">
          <mxGeometry x="82.71428571428574" width="27.571428571428577" height="33" as="geometry" />
        </mxCell>
        <mxCell id="b5TnzWUv-BzJ7pMN1WHI-11" value="" style="group" parent="1" vertex="1" connectable="0">
          <mxGeometry x="1230" y="298" width="193" height="110" as="geometry" />
        </mxCell>
        <mxCell id="b5TnzWUv-BzJ7pMN1WHI-12" value="" style="rounded=0;whiteSpace=wrap;html=1;fillColor=#203C4F;strokeColor=#FFFFFF;gradientColor=none;gradientDirection=north;labelPosition=center;verticalLabelPosition=middle;align=center;verticalAlign=middle;" parent="b5TnzWUv-BzJ7pMN1WHI-11" vertex="1">
          <mxGeometry width="193.00000000000003" height="110.00000000000001" as="geometry" />
        </mxCell>
        <mxCell id="b5TnzWUv-BzJ7pMN1WHI-13" value="register.html" style="text;html=1;strokeColor=none;fillColor=none;align=center;verticalAlign=middle;whiteSpace=wrap;rounded=0;fontColor=#FFFFFF;" parent="b5TnzWUv-BzJ7pMN1WHI-11" vertex="1">
          <mxGeometry x="82.71428571428574" width="27.571428571428577" height="33" as="geometry" />
        </mxCell>
        <mxCell id="b5TnzWUv-BzJ7pMN1WHI-15" value="" style="group" parent="1" vertex="1" connectable="0">
          <mxGeometry x="436" y="458" width="193" height="110" as="geometry" />
        </mxCell>
        <mxCell id="b5TnzWUv-BzJ7pMN1WHI-16" value="" style="rounded=0;whiteSpace=wrap;html=1;fillColor=#203C4F;strokeColor=#FFFFFF;gradientColor=none;gradientDirection=north;labelPosition=center;verticalLabelPosition=middle;align=center;verticalAlign=middle;" parent="b5TnzWUv-BzJ7pMN1WHI-15" vertex="1">
          <mxGeometry width="193.00000000000003" height="110.00000000000001" as="geometry" />
        </mxCell>
        <mxCell id="b5TnzWUv-BzJ7pMN1WHI-17" value="cart.html" style="text;html=1;strokeColor=none;fillColor=none;align=center;verticalAlign=middle;whiteSpace=wrap;rounded=0;fontColor=#FFFFFF;" parent="b5TnzWUv-BzJ7pMN1WHI-15" vertex="1">
          <mxGeometry x="82.71428571428574" width="27.571428571428577" height="33" as="geometry" />
        </mxCell>
        <mxCell id="b5TnzWUv-BzJ7pMN1WHI-64" value="" style="group" parent="b5TnzWUv-BzJ7pMN1WHI-15" vertex="1" connectable="0">
          <mxGeometry x="66.5" y="50.00272727272727" width="60" height="53.630909090909086" as="geometry" />
        </mxCell>
        <mxCell id="b5TnzWUv-BzJ7pMN1WHI-65" value="" style="rounded=1;whiteSpace=wrap;html=1;fillColor=#030303;strokeColor=#FFFFFF;" parent="b5TnzWUv-BzJ7pMN1WHI-64" vertex="1">
          <mxGeometry x="15" y="29.99454545454546" width="30" height="23.636363636363633" as="geometry" />
        </mxCell>
        <mxCell id="b5TnzWUv-BzJ7pMN1WHI-66" value="&lt;font color=&quot;#ffffff&quot;&gt;Kaufen&lt;/font&gt;" style="text;html=1;strokeColor=none;fillColor=none;align=center;verticalAlign=middle;whiteSpace=wrap;rounded=0;" parent="b5TnzWUv-BzJ7pMN1WHI-64" vertex="1">
          <mxGeometry width="60" height="35.45454545454545" as="geometry" />
        </mxCell>
        <mxCell id="b5TnzWUv-BzJ7pMN1WHI-18" value="" style="group" parent="1" vertex="1" connectable="0">
          <mxGeometry x="656" y="429" width="193" height="110" as="geometry" />
        </mxCell>
        <mxCell id="b5TnzWUv-BzJ7pMN1WHI-19" value="" style="rounded=0;whiteSpace=wrap;html=1;fillColor=#203C4F;strokeColor=#FFFFFF;gradientColor=none;gradientDirection=north;labelPosition=center;verticalLabelPosition=middle;align=center;verticalAlign=middle;" parent="b5TnzWUv-BzJ7pMN1WHI-18" vertex="1">
          <mxGeometry width="193" height="110" as="geometry" />
        </mxCell>
        <mxCell id="b5TnzWUv-BzJ7pMN1WHI-20" value="catalog.html" style="text;html=1;strokeColor=none;fillColor=none;align=center;verticalAlign=middle;whiteSpace=wrap;rounded=0;fontColor=#FFFFFF;" parent="b5TnzWUv-BzJ7pMN1WHI-18" vertex="1">
          <mxGeometry x="82.71428571428574" width="27.571428571428577" height="33" as="geometry" />
        </mxCell>
        <mxCell id="b5TnzWUv-BzJ7pMN1WHI-21" value="" style="group" parent="1" vertex="1" connectable="0">
          <mxGeometry x="886" y="569" width="193" height="110" as="geometry" />
        </mxCell>
        <mxCell id="b5TnzWUv-BzJ7pMN1WHI-22" value="" style="rounded=0;whiteSpace=wrap;html=1;fillColor=#203C4F;strokeColor=#FFFFFF;gradientColor=none;gradientDirection=north;labelPosition=center;verticalLabelPosition=middle;align=center;verticalAlign=middle;" parent="b5TnzWUv-BzJ7pMN1WHI-21" vertex="1">
          <mxGeometry width="193.00000000000003" height="110.00000000000001" as="geometry" />
        </mxCell>
        <mxCell id="b5TnzWUv-BzJ7pMN1WHI-23" value="orderdetail.html" style="text;html=1;strokeColor=none;fillColor=none;align=center;verticalAlign=middle;whiteSpace=wrap;rounded=0;fontColor=#FFFFFF;" parent="b5TnzWUv-BzJ7pMN1WHI-21" vertex="1">
          <mxGeometry x="82.71428571428574" width="27.571428571428577" height="33" as="geometry" />
        </mxCell>
        <mxCell id="b5TnzWUv-BzJ7pMN1WHI-24" value="" style="group" parent="1" vertex="1" connectable="0">
          <mxGeometry x="656" y="569" width="193" height="110" as="geometry" />
        </mxCell>
        <mxCell id="b5TnzWUv-BzJ7pMN1WHI-25" value="" style="rounded=0;whiteSpace=wrap;html=1;fillColor=#203C4F;strokeColor=#FFFFFF;gradientColor=none;gradientDirection=north;labelPosition=center;verticalLabelPosition=middle;align=center;verticalAlign=middle;" parent="b5TnzWUv-BzJ7pMN1WHI-24" vertex="1">
          <mxGeometry width="193.00000000000003" height="110.00000000000001" as="geometry" />
        </mxCell>
        <mxCell id="b5TnzWUv-BzJ7pMN1WHI-26" value="detail.html" style="text;html=1;strokeColor=none;fillColor=none;align=center;verticalAlign=middle;whiteSpace=wrap;rounded=0;fontColor=#FFFFFF;" parent="b5TnzWUv-BzJ7pMN1WHI-24" vertex="1">
          <mxGeometry x="82.71428571428574" width="27.571428571428577" height="33" as="geometry" />
        </mxCell>
        <mxCell id="APez3hjichmPzEGnVa3R-41" value="" style="group" vertex="1" connectable="0" parent="b5TnzWUv-BzJ7pMN1WHI-24">
          <mxGeometry x="5" y="-1.9972727272727298" width="60" height="53.630909090909086" as="geometry" />
        </mxCell>
        <mxCell id="APez3hjichmPzEGnVa3R-42" value="" style="rounded=1;whiteSpace=wrap;html=1;fillColor=#030303;strokeColor=#FFFFFF;" vertex="1" parent="APez3hjichmPzEGnVa3R-41">
          <mxGeometry x="15" y="29.99454545454546" width="30" height="23.636363636363633" as="geometry" />
        </mxCell>
        <mxCell id="APez3hjichmPzEGnVa3R-43" value="&lt;font color=&quot;#ffffff&quot;&gt;Cart&lt;/font&gt;" style="text;html=1;strokeColor=none;fillColor=none;align=center;verticalAlign=middle;whiteSpace=wrap;rounded=0;" vertex="1" parent="APez3hjichmPzEGnVa3R-41">
          <mxGeometry width="60" height="35.45454545454545" as="geometry" />
        </mxCell>
        <mxCell id="b5TnzWUv-BzJ7pMN1WHI-27" value="" style="group" parent="1" vertex="1" connectable="0">
          <mxGeometry x="886" y="429" width="193" height="110" as="geometry" />
        </mxCell>
        <mxCell id="b5TnzWUv-BzJ7pMN1WHI-28" value="" style="rounded=0;whiteSpace=wrap;html=1;fillColor=#203C4F;strokeColor=#FFFFFF;gradientColor=none;gradientDirection=north;labelPosition=center;verticalLabelPosition=middle;align=center;verticalAlign=middle;" parent="b5TnzWUv-BzJ7pMN1WHI-27" vertex="1">
          <mxGeometry width="193.00000000000003" height="110.00000000000001" as="geometry" />
        </mxCell>
        <mxCell id="b5TnzWUv-BzJ7pMN1WHI-29" value="orders.html" style="text;html=1;strokeColor=none;fillColor=none;align=center;verticalAlign=middle;whiteSpace=wrap;rounded=0;fontColor=#FFFFFF;" parent="b5TnzWUv-BzJ7pMN1WHI-27" vertex="1">
          <mxGeometry x="82.71428571428574" width="27.571428571428577" height="33" as="geometry" />
        </mxCell>
        <mxCell id="APez3hjichmPzEGnVa3R-32" value="" style="group" vertex="1" connectable="0" parent="b5TnzWUv-BzJ7pMN1WHI-27">
          <mxGeometry x="70" y="49.00272727272727" width="60" height="53.630909090909086" as="geometry" />
        </mxCell>
        <mxCell id="APez3hjichmPzEGnVa3R-33" value="" style="rounded=1;whiteSpace=wrap;html=1;fillColor=#030303;strokeColor=#FFFFFF;" vertex="1" parent="APez3hjichmPzEGnVa3R-32">
          <mxGeometry x="15" y="29.99454545454546" width="30" height="23.636363636363633" as="geometry" />
        </mxCell>
        <mxCell id="APez3hjichmPzEGnVa3R-34" value="&lt;font color=&quot;#ffffff&quot;&gt;Details&lt;/font&gt;" style="text;html=1;strokeColor=none;fillColor=none;align=center;verticalAlign=middle;whiteSpace=wrap;rounded=0;" vertex="1" parent="APez3hjichmPzEGnVa3R-32">
          <mxGeometry width="60" height="35.45454545454545" as="geometry" />
        </mxCell>
        <mxCell id="b5TnzWUv-BzJ7pMN1WHI-33" value="" style="group" parent="1" vertex="1" connectable="0">
          <mxGeometry x="436" y="598" width="193" height="110" as="geometry" />
        </mxCell>
        <mxCell id="b5TnzWUv-BzJ7pMN1WHI-34" value="" style="rounded=0;whiteSpace=wrap;html=1;fillColor=#203C4F;strokeColor=#FFFFFF;gradientColor=none;gradientDirection=north;labelPosition=center;verticalLabelPosition=middle;align=center;verticalAlign=middle;" parent="b5TnzWUv-BzJ7pMN1WHI-33" vertex="1">
          <mxGeometry width="193.00000000000003" height="110.00000000000001" as="geometry" />
        </mxCell>
        <mxCell id="b5TnzWUv-BzJ7pMN1WHI-35" value="thank_you.html" style="text;html=1;strokeColor=none;fillColor=none;align=center;verticalAlign=middle;whiteSpace=wrap;rounded=0;fontColor=#FFFFFF;" parent="b5TnzWUv-BzJ7pMN1WHI-33" vertex="1">
          <mxGeometry x="82.71428571428574" width="27.571428571428577" height="33" as="geometry" />
        </mxCell>
        <mxCell id="b5TnzWUv-BzJ7pMN1WHI-57" value="" style="group" parent="1" vertex="1" connectable="0">
          <mxGeometry x="1000" y="190.00272727272727" width="60" height="53.630909090909086" as="geometry" />
        </mxCell>
        <mxCell id="b5TnzWUv-BzJ7pMN1WHI-58" value="" style="rounded=1;whiteSpace=wrap;html=1;fillColor=#030303;strokeColor=#FFFFFF;" parent="b5TnzWUv-BzJ7pMN1WHI-57" vertex="1">
          <mxGeometry x="15" y="29.99454545454546" width="30" height="23.636363636363633" as="geometry" />
        </mxCell>
        <mxCell id="b5TnzWUv-BzJ7pMN1WHI-59" value="&lt;font color=&quot;#ffffff&quot;&gt;Login&lt;/font&gt;" style="text;html=1;strokeColor=none;fillColor=none;align=center;verticalAlign=middle;whiteSpace=wrap;rounded=0;" parent="b5TnzWUv-BzJ7pMN1WHI-57" vertex="1">
          <mxGeometry width="60" height="35.45454545454545" as="geometry" />
        </mxCell>
        <mxCell id="b5TnzWUv-BzJ7pMN1WHI-62" value="" style="endArrow=classic;html=1;rounded=0;" parent="1" edge="1">
          <mxGeometry width="50" height="50" relative="1" as="geometry">
            <mxPoint x="770" y="370" as="sourcePoint" />
            <mxPoint x="820" y="320" as="targetPoint" />
          </mxGeometry>
        </mxCell>
        <mxCell id="b5TnzWUv-BzJ7pMN1WHI-67" style="edgeStyle=orthogonalEdgeStyle;rounded=0;orthogonalLoop=1;jettySize=auto;html=1;exitX=0.5;exitY=1;exitDx=0;exitDy=0;entryX=0.5;entryY=0;entryDx=0;entryDy=0;strokeColor=#FFFFFF;" parent="1" source="b5TnzWUv-BzJ7pMN1WHI-65" target="b5TnzWUv-BzJ7pMN1WHI-35" edge="1">
          <mxGeometry relative="1" as="geometry" />
        </mxCell>
        <mxCell id="b5TnzWUv-BzJ7pMN1WHI-73" style="edgeStyle=orthogonalEdgeStyle;shape=connector;rounded=0;orthogonalLoop=1;jettySize=auto;html=1;exitX=1;exitY=0.5;exitDx=0;exitDy=0;entryX=0;entryY=0.75;entryDx=0;entryDy=0;labelBackgroundColor=default;strokeColor=#FFFFFF;align=center;verticalAlign=middle;fontFamily=Helvetica;fontSize=11;fontColor=default;endArrow=classic;" parent="1" source="b5TnzWUv-BzJ7pMN1WHI-58" target="b5TnzWUv-BzJ7pMN1WHI-9" edge="1">
          <mxGeometry relative="1" as="geometry" />
        </mxCell>
        <mxCell id="b5TnzWUv-BzJ7pMN1WHI-74" value="" style="group" parent="1" vertex="1" connectable="0">
          <mxGeometry x="1296.5" y="200.00272727272727" width="60" height="53.630909090909086" as="geometry" />
        </mxCell>
        <mxCell id="b5TnzWUv-BzJ7pMN1WHI-75" value="" style="rounded=1;whiteSpace=wrap;html=1;fillColor=#030303;strokeColor=#FFFFFF;" parent="b5TnzWUv-BzJ7pMN1WHI-74" vertex="1">
          <mxGeometry x="15" y="29.99454545454546" width="30" height="23.636363636363633" as="geometry" />
        </mxCell>
        <mxCell id="b5TnzWUv-BzJ7pMN1WHI-76" value="&lt;font color=&quot;#ffffff&quot;&gt;Registrieren&lt;/font&gt;" style="text;html=1;strokeColor=none;fillColor=none;align=center;verticalAlign=middle;whiteSpace=wrap;rounded=0;" parent="b5TnzWUv-BzJ7pMN1WHI-74" vertex="1">
          <mxGeometry width="60" height="35.45454545454545" as="geometry" />
        </mxCell>
        <mxCell id="b5TnzWUv-BzJ7pMN1WHI-78" style="edgeStyle=orthogonalEdgeStyle;shape=connector;rounded=0;orthogonalLoop=1;jettySize=auto;html=1;exitX=0.5;exitY=1;exitDx=0;exitDy=0;entryX=0.5;entryY=0;entryDx=0;entryDy=0;labelBackgroundColor=default;strokeColor=#FFFFFF;align=center;verticalAlign=middle;fontFamily=Helvetica;fontSize=11;fontColor=default;endArrow=classic;" parent="1" source="b5TnzWUv-BzJ7pMN1WHI-75" target="b5TnzWUv-BzJ7pMN1WHI-13" edge="1">
          <mxGeometry relative="1" as="geometry" />
        </mxCell>
        <mxCell id="b5TnzWUv-BzJ7pMN1WHI-79" value="" style="endArrow=classic;html=1;rounded=0;labelBackgroundColor=default;strokeColor=#FFFFFF;align=center;verticalAlign=middle;fontFamily=Helvetica;fontSize=11;fontColor=default;shape=connector;exitX=0.21;exitY=0;exitDx=0;exitDy=0;exitPerimeter=0;entryX=0.963;entryY=1;entryDx=0;entryDy=0;entryPerimeter=0;" parent="1" source="b5TnzWUv-BzJ7pMN1WHI-12" target="b5TnzWUv-BzJ7pMN1WHI-2" edge="1">
          <mxGeometry width="50" height="50" relative="1" as="geometry">
            <mxPoint x="1000" y="400" as="sourcePoint" />
            <mxPoint x="1060" y="290" as="targetPoint" />
            <Array as="points">
              <mxPoint x="1271" y="290" />
              <mxPoint x="1060" y="290" />
            </Array>
          </mxGeometry>
        </mxCell>
        <mxCell id="b5TnzWUv-BzJ7pMN1WHI-80" value="" style="endArrow=classic;html=1;rounded=0;labelBackgroundColor=default;strokeColor=#FFFFFF;align=center;verticalAlign=middle;fontFamily=Helvetica;fontSize=11;fontColor=default;shape=connector;exitX=0;exitY=0.455;exitDx=0;exitDy=0;exitPerimeter=0;entryX=0.998;entryY=0.533;entryDx=0;entryDy=0;entryPerimeter=0;" parent="1" source="b5TnzWUv-BzJ7pMN1WHI-9" target="b5TnzWUv-BzJ7pMN1WHI-2" edge="1">
          <mxGeometry width="50" height="50" relative="1" as="geometry">
            <mxPoint x="1100" y="280" as="sourcePoint" />
            <mxPoint x="1150" y="230" as="targetPoint" />
          </mxGeometry>
        </mxCell>
        <mxCell id="b5TnzWUv-BzJ7pMN1WHI-72" style="edgeStyle=orthogonalEdgeStyle;shape=connector;rounded=0;orthogonalLoop=1;jettySize=auto;html=1;exitX=0.5;exitY=1;exitDx=0;exitDy=0;labelBackgroundColor=default;strokeColor=#FFFFFF;align=center;verticalAlign=middle;fontFamily=Helvetica;fontSize=11;fontColor=default;endArrow=classic;entryX=0.218;entryY=0.002;entryDx=0;entryDy=0;entryPerimeter=0;" parent="1" source="b5TnzWUv-BzJ7pMN1WHI-55" target="b5TnzWUv-BzJ7pMN1WHI-28" edge="1">
          <mxGeometry relative="1" as="geometry">
            <mxPoint x="846" y="480" as="targetPoint" />
          </mxGeometry>
        </mxCell>
        <mxCell id="b5TnzWUv-BzJ7pMN1WHI-81" style="edgeStyle=orthogonalEdgeStyle;shape=connector;rounded=0;orthogonalLoop=1;jettySize=auto;html=1;exitX=0.5;exitY=1;exitDx=0;exitDy=0;labelBackgroundColor=default;strokeColor=#FFFFFF;align=center;verticalAlign=middle;fontFamily=Helvetica;fontSize=11;fontColor=default;endArrow=classic;entryX=1;entryY=0;entryDx=0;entryDy=0;" parent="1" source="b5TnzWUv-BzJ7pMN1WHI-44" target="b5TnzWUv-BzJ7pMN1WHI-17" edge="1">
          <mxGeometry relative="1" as="geometry">
            <mxPoint x="510.2222222222222" y="410" as="targetPoint" />
          </mxGeometry>
        </mxCell>
        <mxCell id="b5TnzWUv-BzJ7pMN1WHI-68" style="edgeStyle=orthogonalEdgeStyle;shape=connector;rounded=0;orthogonalLoop=1;jettySize=auto;html=1;exitX=0.5;exitY=1;exitDx=0;exitDy=0;labelBackgroundColor=default;strokeColor=#FFFFFF;align=center;verticalAlign=middle;fontFamily=Helvetica;fontSize=11;fontColor=default;endArrow=classic;entryX=0.642;entryY=-0.021;entryDx=0;entryDy=0;entryPerimeter=0;" parent="1" source="b5TnzWUv-BzJ7pMN1WHI-49" target="b5TnzWUv-BzJ7pMN1WHI-20" edge="1">
          <mxGeometry relative="1" as="geometry">
            <mxPoint x="720" y="438" as="targetPoint" />
          </mxGeometry>
        </mxCell>
        <mxCell id="APez3hjichmPzEGnVa3R-1" value="" style="group" vertex="1" connectable="0" parent="1">
          <mxGeometry x="168" y="270" width="193" height="110" as="geometry" />
        </mxCell>
        <mxCell id="APez3hjichmPzEGnVa3R-2" value="" style="rounded=0;whiteSpace=wrap;html=1;fillColor=#203C4F;strokeColor=#FFFFFF;gradientColor=none;gradientDirection=north;labelPosition=center;verticalLabelPosition=middle;align=center;verticalAlign=middle;" vertex="1" parent="APez3hjichmPzEGnVa3R-1">
          <mxGeometry width="193" height="110" as="geometry" />
        </mxCell>
        <mxCell id="APez3hjichmPzEGnVa3R-3" value="reservations.html" style="text;html=1;strokeColor=none;fillColor=none;align=center;verticalAlign=middle;whiteSpace=wrap;rounded=0;fontColor=#FFFFFF;" vertex="1" parent="APez3hjichmPzEGnVa3R-1">
          <mxGeometry x="82.71428571428574" width="27.571428571428577" height="33" as="geometry" />
        </mxCell>
        <mxCell id="APez3hjichmPzEGnVa3R-4" value="" style="group" vertex="1" connectable="0" parent="1">
          <mxGeometry x="168" y="147" width="193" height="110" as="geometry" />
        </mxCell>
        <mxCell id="APez3hjichmPzEGnVa3R-5" value="" style="rounded=0;whiteSpace=wrap;html=1;fillColor=#203C4F;strokeColor=#FFFFFF;gradientColor=none;gradientDirection=north;labelPosition=center;verticalLabelPosition=middle;align=center;verticalAlign=middle;" vertex="1" parent="APez3hjichmPzEGnVa3R-4">
          <mxGeometry width="193" height="110" as="geometry" />
        </mxCell>
        <mxCell id="APez3hjichmPzEGnVa3R-6" value="account.html&lt;br&gt;" style="text;html=1;strokeColor=none;fillColor=none;align=center;verticalAlign=middle;whiteSpace=wrap;rounded=0;fontColor=#FFFFFF;" vertex="1" parent="APez3hjichmPzEGnVa3R-4">
          <mxGeometry x="82.71428571428574" width="27.571428571428577" height="33" as="geometry" />
        </mxCell>
        <mxCell id="APez3hjichmPzEGnVa3R-7" value="" style="group" vertex="1" connectable="0" parent="1">
          <mxGeometry x="1104" y="429" width="193" height="110" as="geometry" />
        </mxCell>
        <mxCell id="APez3hjichmPzEGnVa3R-8" value="" style="rounded=0;whiteSpace=wrap;html=1;fillColor=#203C4F;strokeColor=#FFFFFF;gradientColor=none;gradientDirection=north;labelPosition=center;verticalLabelPosition=middle;align=center;verticalAlign=middle;" vertex="1" parent="APez3hjichmPzEGnVa3R-7">
          <mxGeometry width="193" height="110" as="geometry" />
        </mxCell>
        <mxCell id="APez3hjichmPzEGnVa3R-9" value="support_user_overview.html" style="text;html=1;strokeColor=none;fillColor=none;align=center;verticalAlign=middle;whiteSpace=wrap;rounded=0;fontColor=#FFFFFF;" vertex="1" parent="APez3hjichmPzEGnVa3R-7">
          <mxGeometry x="82.71428571428574" width="27.571428571428577" height="33" as="geometry" />
        </mxCell>
        <mxCell id="APez3hjichmPzEGnVa3R-10" value="" style="group" vertex="1" connectable="0" parent="1">
          <mxGeometry x="1104" y="566" width="193" height="110" as="geometry" />
        </mxCell>
        <mxCell id="APez3hjichmPzEGnVa3R-11" value="" style="rounded=0;whiteSpace=wrap;html=1;fillColor=#203C4F;strokeColor=#FFFFFF;gradientColor=none;gradientDirection=north;labelPosition=center;verticalLabelPosition=middle;align=center;verticalAlign=middle;" vertex="1" parent="APez3hjichmPzEGnVa3R-10">
          <mxGeometry width="193" height="110" as="geometry" />
        </mxCell>
        <mxCell id="APez3hjichmPzEGnVa3R-12" value="support_user.html" style="text;html=1;strokeColor=none;fillColor=none;align=center;verticalAlign=middle;whiteSpace=wrap;rounded=0;fontColor=#FFFFFF;" vertex="1" parent="APez3hjichmPzEGnVa3R-10">
          <mxGeometry x="82.71428571428574" width="27.571428571428577" height="33" as="geometry" />
        </mxCell>
        <mxCell id="APez3hjichmPzEGnVa3R-57" value="" style="group" vertex="1" connectable="0" parent="APez3hjichmPzEGnVa3R-10">
          <mxGeometry x="66" y="48.00272727272727" width="93" height="53.630909090909086" as="geometry" />
        </mxCell>
        <mxCell id="APez3hjichmPzEGnVa3R-58" value="" style="rounded=1;whiteSpace=wrap;html=1;fillColor=#030303;strokeColor=#FFFFFF;" vertex="1" parent="APez3hjichmPzEGnVa3R-57">
          <mxGeometry x="15" y="29.99454545454546" width="30" height="23.636363636363633" as="geometry" />
        </mxCell>
        <mxCell id="APez3hjichmPzEGnVa3R-59" value="&lt;font color=&quot;#ffffff&quot;&gt;Open issue&lt;br&gt;&lt;/font&gt;" style="text;html=1;strokeColor=none;fillColor=none;align=center;verticalAlign=middle;whiteSpace=wrap;rounded=0;" vertex="1" parent="APez3hjichmPzEGnVa3R-57">
          <mxGeometry x="-31" width="124" height="35.45" as="geometry" />
        </mxCell>
        <mxCell id="APez3hjichmPzEGnVa3R-13" value="" style="group" vertex="1" connectable="0" parent="1">
          <mxGeometry x="1102" y="694" width="193" height="110" as="geometry" />
        </mxCell>
        <mxCell id="APez3hjichmPzEGnVa3R-14" value="" style="rounded=0;whiteSpace=wrap;html=1;fillColor=#203C4F;strokeColor=#FFFFFF;gradientColor=none;gradientDirection=north;labelPosition=center;verticalLabelPosition=middle;align=center;verticalAlign=middle;" vertex="1" parent="APez3hjichmPzEGnVa3R-13">
          <mxGeometry width="193" height="110" as="geometry" />
        </mxCell>
        <mxCell id="APez3hjichmPzEGnVa3R-15" value="support_chat.html&lt;br&gt;" style="text;html=1;strokeColor=none;fillColor=none;align=center;verticalAlign=middle;whiteSpace=wrap;rounded=0;fontColor=#FFFFFF;" vertex="1" parent="APez3hjichmPzEGnVa3R-13">
          <mxGeometry x="82.71428571428574" width="27.571428571428577" height="33" as="geometry" />
        </mxCell>
        <mxCell id="APez3hjichmPzEGnVa3R-35" style="edgeStyle=orthogonalEdgeStyle;rounded=0;orthogonalLoop=1;jettySize=auto;html=1;exitX=0.5;exitY=1;exitDx=0;exitDy=0;entryX=0.659;entryY=-0.031;entryDx=0;entryDy=0;strokeColor=#FFFFFF;entryPerimeter=0;" edge="1" parent="1" source="APez3hjichmPzEGnVa3R-33" target="b5TnzWUv-BzJ7pMN1WHI-23">
          <mxGeometry relative="1" as="geometry">
            <mxPoint x="543" y="579" as="targetPoint" />
          </mxGeometry>
        </mxCell>
        <mxCell id="APez3hjichmPzEGnVa3R-37" value="" style="group" vertex="1" connectable="0" parent="1">
          <mxGeometry x="723" y="478.00272727272727" width="60" height="53.630909090909086" as="geometry" />
        </mxCell>
        <mxCell id="APez3hjichmPzEGnVa3R-38" value="" style="rounded=1;whiteSpace=wrap;html=1;fillColor=#030303;strokeColor=#FFFFFF;" vertex="1" parent="APez3hjichmPzEGnVa3R-37">
          <mxGeometry x="15" y="29.99454545454546" width="30" height="23.636363636363633" as="geometry" />
        </mxCell>
        <mxCell id="APez3hjichmPzEGnVa3R-39" value="&lt;font color=&quot;#ffffff&quot;&gt;{Book}&lt;/font&gt;" style="text;html=1;strokeColor=none;fillColor=none;align=center;verticalAlign=middle;whiteSpace=wrap;rounded=0;" vertex="1" parent="APez3hjichmPzEGnVa3R-37">
          <mxGeometry width="60" height="35.45454545454545" as="geometry" />
        </mxCell>
        <mxCell id="APez3hjichmPzEGnVa3R-40" style="edgeStyle=orthogonalEdgeStyle;rounded=0;orthogonalLoop=1;jettySize=auto;html=1;exitX=0.5;exitY=1;exitDx=0;exitDy=0;entryX=0.5;entryY=0;entryDx=0;entryDy=0;strokeColor=#FFFFFF;" edge="1" parent="1" source="APez3hjichmPzEGnVa3R-38">
          <mxGeometry relative="1" as="geometry">
            <mxPoint x="753.5" y="568" as="targetPoint" />
          </mxGeometry>
        </mxCell>
        <mxCell id="APez3hjichmPzEGnVa3R-46" style="edgeStyle=orthogonalEdgeStyle;rounded=0;orthogonalLoop=1;jettySize=auto;html=1;exitX=0;exitY=0.5;exitDx=0;exitDy=0;entryX=1.005;entryY=0.922;entryDx=0;entryDy=0;entryPerimeter=0;strokeColor=#FFFFFF;" edge="1" parent="1" source="APez3hjichmPzEGnVa3R-42" target="b5TnzWUv-BzJ7pMN1WHI-16">
          <mxGeometry relative="1" as="geometry">
            <Array as="points">
              <mxPoint x="648" y="609" />
              <mxPoint x="648" y="559" />
            </Array>
          </mxGeometry>
        </mxCell>
        <mxCell id="b5TnzWUv-BzJ7pMN1WHI-30" value="" style="group" parent="1" vertex="1" connectable="0">
          <mxGeometry x="219" y="445" width="193" height="110" as="geometry" />
        </mxCell>
        <mxCell id="b5TnzWUv-BzJ7pMN1WHI-31" value="" style="rounded=0;whiteSpace=wrap;html=1;fillColor=#203C4F;strokeColor=#FFFFFF;gradientColor=none;gradientDirection=north;labelPosition=center;verticalLabelPosition=middle;align=center;verticalAlign=middle;" parent="b5TnzWUv-BzJ7pMN1WHI-30" vertex="1">
          <mxGeometry width="193.00000000000003" height="110.00000000000001" as="geometry" />
        </mxCell>
        <mxCell id="b5TnzWUv-BzJ7pMN1WHI-32" value="calendar.html" style="text;html=1;strokeColor=none;fillColor=none;align=center;verticalAlign=middle;whiteSpace=wrap;rounded=0;fontColor=#FFFFFF;" parent="b5TnzWUv-BzJ7pMN1WHI-30" vertex="1">
          <mxGeometry x="82.71428571428574" width="27.571428571428577" height="33" as="geometry" />
        </mxCell>
        <mxCell id="APez3hjichmPzEGnVa3R-47" style="edgeStyle=orthogonalEdgeStyle;shape=connector;rounded=0;orthogonalLoop=1;jettySize=auto;html=1;exitX=0.5;exitY=1;exitDx=0;exitDy=0;entryX=0.923;entryY=0.007;entryDx=0;entryDy=0;entryPerimeter=0;labelBackgroundColor=default;strokeColor=#FFFFFF;align=center;verticalAlign=middle;fontFamily=Helvetica;fontSize=11;fontColor=default;endArrow=classic;" edge="1" parent="1" source="b5TnzWUv-BzJ7pMN1WHI-52" target="b5TnzWUv-BzJ7pMN1WHI-31">
          <mxGeometry relative="1" as="geometry">
            <Array as="points">
              <mxPoint x="647" y="336" />
              <mxPoint x="397" y="336" />
            </Array>
          </mxGeometry>
        </mxCell>
        <mxCell id="APez3hjichmPzEGnVa3R-48" style="edgeStyle=orthogonalEdgeStyle;shape=connector;rounded=0;orthogonalLoop=1;jettySize=auto;html=1;exitX=0.5;exitY=1;exitDx=0;exitDy=0;entryX=0.159;entryY=0.018;entryDx=0;entryDy=0;entryPerimeter=0;labelBackgroundColor=default;strokeColor=#FFFFFF;align=center;verticalAlign=middle;fontFamily=Helvetica;fontSize=11;fontColor=default;endArrow=classic;" edge="1" parent="1" source="APez3hjichmPzEGnVa3R-18" target="APez3hjichmPzEGnVa3R-8">
          <mxGeometry relative="1" as="geometry" />
        </mxCell>
        <mxCell id="APez3hjichmPzEGnVa3R-50" value="" style="group" vertex="1" connectable="0" parent="1">
          <mxGeometry x="1170" y="477.00272727272727" width="93" height="53.630909090909086" as="geometry" />
        </mxCell>
        <mxCell id="APez3hjichmPzEGnVa3R-51" value="" style="rounded=1;whiteSpace=wrap;html=1;fillColor=#030303;strokeColor=#FFFFFF;" vertex="1" parent="APez3hjichmPzEGnVa3R-50">
          <mxGeometry x="15" y="29.99454545454546" width="30" height="23.636363636363633" as="geometry" />
        </mxCell>
        <mxCell id="APez3hjichmPzEGnVa3R-52" value="&lt;font color=&quot;#ffffff&quot;&gt;Create new issue&lt;br&gt;&lt;/font&gt;" style="text;html=1;strokeColor=none;fillColor=none;align=center;verticalAlign=middle;whiteSpace=wrap;rounded=0;" vertex="1" parent="APez3hjichmPzEGnVa3R-50">
          <mxGeometry x="-31" width="124" height="35.45" as="geometry" />
        </mxCell>
        <mxCell id="APez3hjichmPzEGnVa3R-54" style="edgeStyle=orthogonalEdgeStyle;shape=connector;rounded=0;orthogonalLoop=1;jettySize=auto;html=1;exitX=0.5;exitY=1;exitDx=0;exitDy=0;entryX=0.5;entryY=0;entryDx=0;entryDy=0;labelBackgroundColor=default;strokeColor=#FFFFFF;align=center;verticalAlign=middle;fontFamily=Helvetica;fontSize=11;fontColor=default;endArrow=classic;" edge="1" parent="1" source="APez3hjichmPzEGnVa3R-51" target="APez3hjichmPzEGnVa3R-12">
          <mxGeometry relative="1" as="geometry" />
        </mxCell>
        <mxCell id="APez3hjichmPzEGnVa3R-56" style="edgeStyle=orthogonalEdgeStyle;shape=connector;rounded=0;orthogonalLoop=1;jettySize=auto;html=1;exitX=0.5;exitY=1;exitDx=0;exitDy=0;entryX=1;entryY=0.5;entryDx=0;entryDy=0;labelBackgroundColor=default;strokeColor=#FFFFFF;align=center;verticalAlign=middle;fontFamily=Helvetica;fontSize=11;fontColor=default;endArrow=classic;" edge="1" parent="1" source="APez3hjichmPzEGnVa3R-27" target="APez3hjichmPzEGnVa3R-2">
          <mxGeometry relative="1" as="geometry" />
        </mxCell>
        <mxCell id="APez3hjichmPzEGnVa3R-60" style="edgeStyle=orthogonalEdgeStyle;shape=connector;rounded=0;orthogonalLoop=1;jettySize=auto;html=1;exitX=0.5;exitY=1;exitDx=0;exitDy=0;entryX=0.5;entryY=0;entryDx=0;entryDy=0;labelBackgroundColor=default;strokeColor=#FFFFFF;align=center;verticalAlign=middle;fontFamily=Helvetica;fontSize=11;fontColor=default;endArrow=classic;" edge="1" parent="1" source="APez3hjichmPzEGnVa3R-58" target="APez3hjichmPzEGnVa3R-15">
          <mxGeometry relative="1" as="geometry" />
        </mxCell>
      </root>
    </mxGraphModel>
  </diagram>
</mxfile>
